<svg xmlns="http://www.w3.org/2000/svg" version="1.1" xmlns:xlink="http://www.w3.org/1999/xlink" xmlns:svgjs="http://svgjs.dev/svgjs" width="2000" height="1247" viewBox="0 0 2000 1247"><g transform="matrix(1,0,0,1,-1.2121128582238043,0.504858299595071)"><svg viewBox="0 0 396 247" data-background-color="#f4f5ef" preserveAspectRatio="xMidYMid meet" height="1247" width="2000" xmlns="http://www.w3.org/2000/svg" xmlns:xlink="http://www.w3.org/1999/xlink"><g id="tight-bounds" transform="matrix(1,0,0,1,0.23999834592831348,-0.09999999999999432)"><svg viewBox="0 0 395.52 247.2" height="247.2" width="395.52"><g><svg></svg></g><g><svg viewBox="0 0 395.52 247.2" height="247.2" width="395.52"><g><g><path xmlns="http://www.w3.org/2000/svg" d="M181.672 26.917c-25.782-8.044-51.152-12.066-76.109-12.066-11.757 0-22.998 1.031-33.723 3.093-8.457 2.269-14.995 5.816-19.616 10.643-4.661 4.868-6.992 8.539-6.992 11.015 0 2.475 0.413 4.538 1.238 6.187 0.825 1.65 1.238 3.032 1.237 4.146 0 1.155-0.454 1.629-1.361 1.423-0.949-0.206-2.558-1.712-4.826-4.517-2.269-2.764-3.403-6.167-3.404-10.21 0-4.001 1.444-8.168 4.332-12.499 5.981-8.869 14.129-15.057 24.441-18.563 10.313-3.506 22.998-5.26 38.055-5.26 23.72 0 52.905 4.435 87.556 13.304 4.744-4.744 9.756-8.209 15.037-10.395 5.239-2.145 9.302-3.218 12.189-3.218 2.888 0 4.95 1.856 6.188 5.569 0 0.619 0 1.134 0 1.547 0 7.219-3.341 12.932-10.024 17.14-6.724 4.249-12.767 6.373-18.13 6.373-1.856 0-3.61-0.206-5.26-0.618-4.95 2.681-9.323 5.713-13.118 9.096-3.836 3.424-6.786 6.002-8.848 7.734-2.063 1.774-4.744 4.352-8.044 7.735-3.3 3.424-5.775 6.002-7.425 7.735-1.65 1.774-4.373 4.765-8.168 8.972-1.932 2.14-3.561 3.924-4.887 5.352h-15.688l3.373-3.62c22.482-24.132 39.808-39.498 51.977-46.098zM40.592 174.927c0 1.568 1.238 3.176 3.712 4.827 5.775 3.094 16.15 8.972 31.124 17.635 14.933 8.663 26.422 14.954 34.466 18.872 8.044 3.919 17.635 7.425 28.773 10.519 11.138 3.094 19.594 4.641 25.37 4.641 5.775 0 10.107-0.206 12.994-0.619 10.107-1.444 18.254-5.569 24.442-12.375 2.888-3.3 4.331-7.116 4.331-11.447 0-4.331-1.753-9.282-5.26-14.851-1.444-2.681-1.341-4.166 0.31-4.455 1.65-0.33 3.197 0.743 4.641 3.218 4.125 6.6 7.013 14.851 8.663 24.751 0.206 1.238 0.309 2.578 0.309 4.022 0 6.188-2.372 12.066-7.116 17.635-5.569 6.6-14.995 9.9-28.278 9.9-13.324 0-26.999-2.372-41.025-7.116-14.026-4.744-26.71-10.829-38.054-18.254-35.889-23.101-60.227-37.023-73.015-41.767-6.807 3.506-11.55 5.26-14.232 5.26-7.838 0-11.757-3.3-11.757-9.901 0-1.819 0.467-3.438 1.4-4.857h40.276c-1.383 1.415-2.074 2.869-2.074 4.362zM394.53 17.944c0 4.538-1.856 9.797-5.569 15.779-3.094 5.569-6.559 9.385-10.395 11.447-3.795 2.063-5.693 1.856-5.693-0.618 0-0.206 1.134-1.444 3.403-3.713 6.807-6.394 10.21-11.654 10.21-15.779 0-8.869-8.766-13.304-26.298-13.303-7.425 0-17.223 1.382-29.392 4.145-12.169 2.805-23.926 7.302-35.27 13.49-13.2 7.219-19.801 13.51-19.801 18.872 0 4.331 4.022 8.457 12.067 12.376 4.331 2.063 12.932 5.528 25.802 10.395 5.27 1.97 10.124 3.837 14.562 5.6l-46.977 0c-3.742-1.971-7.168-4.168-10.28-6.59-6.476-5.033-9.715-11.117-9.715-18.254 0-7.095 3.857-14.108 11.571-21.038 7.755-6.889 17.099-12.396 28.031-16.521 23.513-8.869 43.417-13.304 59.711-13.304 22.688 0 34.033 5.672 34.033 17.016zM307.592 181.796c-23.101 9.158-42.902 13.737-59.402 13.736-31.032 0-47.289-8.323-48.772-24.967l19.711 0c1.118 1.358 2.451 2.668 4.001 3.929 5.569 4.538 16.191 6.807 31.867 6.807 15.676 0 31.145-2.475 46.408-7.426 3.3-1.093 6.477-2.197 9.529-3.31l20.651 0c-7.398 4.064-15.395 7.807-23.993 11.231z" fill="#39312e" fill-rule="nonzero" stroke="none" stroke-width="1" stroke-linecap="butt" stroke-linejoin="miter" stroke-miterlimit="10" stroke-dasharray="" stroke-dashoffset="0" font-family="none" font-weight="none" font-size="none" text-anchor="none" style="mix-blend-mode: normal" data-fill-palette-color="tertiary"></path></g></g><g transform="matrix(1,0,0,1,0,87.24539849280657)"><svg viewBox="0 0 395.52 72.70920301438684" height="72.70920301438684" width="395.52"><g><svg viewBox="0 0 395.52 72.70920301438684" height="72.70920301438684" width="395.52"><g><svg viewBox="0 0 395.52 72.70920301438684" height="72.70920301438684" width="395.52"><g><svg viewBox="0 0 395.52 72.70920301438684" height="72.70920301438684" width="395.52"><g><svg viewBox="0 0 395.52 72.70920301438684" height="72.70920301438684" width="395.52"><g><svg viewBox="0 0 395.52 72.70920301438684" height="72.70920301438684" width="395.52"><g transform="matrix(1,0,0,1,0,0)"><svg width="395.52" viewBox="0.5 -29.600000381469727 218.9199981689453 40.25" height="72.70920301438684" data-palette-color="#39312e"><path d="M29.7-24.95L29.7-24.95Q23.45-26.9 17.4-26.9L17.4-26.9Q14.55-26.9 11.95-26.4L11.95-26.4Q9.9-25.85 8.78-24.68 7.65-23.5 7.65-22.9 7.65-22.3 7.85-21.9 8.05-21.5 8.05-21.23 8.05-20.95 7.83-21 7.6-21.05 7.05-21.73 6.5-22.4 6.5-23.38 6.5-24.35 7.2-25.4L7.2-25.4Q8.65-27.55 11.15-28.4 13.65-29.25 17.3-29.25L17.3-29.25Q23.05-29.25 31.45-27.1L31.45-27.1Q32.6-28.25 33.88-28.78 35.15-29.3 35.85-29.3 36.55-29.3 36.85-28.4L36.85-28.4Q36.85-28.25 36.85-28.15L36.85-28.15Q36.85-26.4 35.23-25.38 33.6-24.35 32.3-24.35L32.3-24.35Q31.85-24.35 31.45-24.45L31.45-24.45Q30.25-23.8 29.33-22.98 28.4-22.15 27.9-21.73 27.4-21.3 26.6-20.48 25.8-19.65 25.4-19.23 25-18.8 24.08-17.78 23.15-16.75 22.8-16.4L22.8-16.4Q21.2-14.65 20.2-13.4L20.2-13.4Q24.55-13.75 25.75-13.75 26.95-13.75 27.25-13.75 27.55-13.75 27.85-13.68 28.15-13.6 28.3-13.5L28.3-13.5Q28.65-13.2 27.25-12.7L27.25-12.7Q25.1-12.1 18.6-11.65L18.6-11.65 16.25-9.15Q11.25-4.05 7.25-1.75L7.25-1.75Q6.9-1.4 6.9-1.03 6.9-0.65 7.5-0.25L7.5-0.25Q8.9 0.5 12.53 2.6 16.15 4.7 18.1 5.65 20.05 6.6 22.75 7.35 25.45 8.1 26.85 8.1 28.25 8.1 28.95 8L28.95 8Q31.4 7.65 32.9 6L32.9 6Q33.6 5.2 33.6 4.15 33.6 3.1 32.75 1.75L32.75 1.75Q32.4 1.1 32.8 1.03 33.2 0.95 33.55 1.55L33.55 1.55Q34.55 3.15 34.95 5.55L34.95 5.55Q35 5.85 35 6.2L35 6.2Q35 7.7 33.85 9.05L33.85 9.05Q32.5 10.65 29.28 10.65 26.05 10.65 22.65 9.5 19.25 8.35 16.5 6.55L16.5 6.55Q7.8 0.95 4.7-0.2L4.7-0.2Q3.05 0.65 2.4 0.65L2.4 0.65Q0.5 0.65 0.5-0.95L0.5-0.95Q0.5-1.9 1.55-2.4L1.55-2.4Q2.05-2.45 3.08-2.23 4.1-2 4.6-1.95L4.6-1.95Q7.9-3.1 15.7-11.45L15.7-11.45Q13.3-11.3 12.5-11.3 11.7-11.3 11.38-11.33 11.05-11.35 10.63-11.75 10.2-12.15 10.2-12.75 10.2-13.35 11.2-13.78 12.2-14.2 12.55-14.2 12.9-14.2 13.15-14.2 13.4-14.2 13.8-13.7 14.2-13.2 14.35-13.2L14.35-13.2Q15.1-13.15 15.85-13.15 16.6-13.15 17.3-13.2L17.3-13.2Q17.9-13.85 19.25-15.3L19.25-15.3 21.3-17.5Q26.75-23.35 29.7-24.95ZM45.55-25.5L45.55-25.5Q46.15-26.6 46.15-27.2L46.15-27.2Q46.15-28.25 45.3-28.25L45.3-28.25Q44.6-28.25 43.55-27.45L43.55-27.45Q39.55-24.35 35.8-17.65L35.8-17.65Q32.8-12.25 31.4-8.4L31.4-8.4Q34.85-10.75 39.12-16.05 43.4-21.35 45.55-25.5ZM30.65-6.4L30.65-6.4Q30.05-4.7 30-4.13 29.95-3.55 29.95-2.58 29.95-1.6 30.45-0.8L30.45-0.8Q31.3 0.55 33.3-0.6L33.3-0.6Q34.8-1.4 37.1-3.53 39.4-5.65 40.65-7.4L40.65-7.4Q40.75-7.55 40.95-7.55L40.95-7.55Q41.4-7.55 41.2-6.9L41.2-6.9Q40.45-5.55 38.42-3.45 36.4-1.35 34.75-0.13 33.1 1.1 31.45 1.1L31.45 1.1Q27.65 1.1 27.65-2.6L27.65-2.6Q27.65-2.75 27.65-2.9L27.65-2.9Q27.85-6.4 31.2-13.48 34.55-20.55 37.25-24.15L37.25-24.15 38.8-26.1Q39.35-26.75 40.4-27.7L40.4-27.7Q42.4-29.6 44.52-29.6 46.65-29.6 47.4-28.3L47.4-28.3Q47.65-27.85 47.65-27 47.65-26.15 46.9-24.6L46.9-24.6Q41.75-15.65 30.65-6.4ZM42.45 0.55L42.45 0.55Q41.65 0.55 40.72 0.08 39.8-0.4 39.15-1.28 38.5-2.15 38.5-3.15 38.5-4.15 38.95-5.05L38.95-5.05Q39.95-7.15 42.17-9.13 44.4-11.1 46.8-12.5 49.2-13.9 50.6-14.25 52-14.6 53.32-14.6 54.65-14.6 55.6-13.93 56.55-13.25 56.55-12.5L56.55-12.5Q56.55-12.25 56.5-12.2 56.45-12.15 56.25-12.25L56.25-12.25Q55.65-13.2 53.77-13.2 51.9-13.2 49.52-11.98 47.15-10.75 45.05-8.9L45.05-8.9Q43.3-7.25 41.97-5.18 40.65-3.1 40.65-2.15L40.65-2.15Q40.65-0.3 41.7-0.3 42.75-0.3 44.9-2L44.9-2Q48.45-5 49.75-6.4L49.75-6.4Q54.35-11.35 54.7-11.35L54.7-11.35Q55.3-11.35 56.15-11 57-10.65 56.7-10.15L56.7-10.15Q54.15-6.55 53.7-2.9L53.7-2.9Q53.65-2.45 53.65-1.75 53.65-1.05 54.05-0.6L54.05-0.6Q54.8 0.2 56.1-0.5 57.4-1.2 59.72-3.3 62.05-5.4 63.45-7.4L63.45-7.4Q63.65-7.65 63.9-7.53 64.15-7.4 64.15-7.3L64.15-7.3Q64.15-6.55 61.77-4.03 59.4-1.5 58.15-0.6L58.15-0.6Q55.8 1.15 53.8 1.15L53.8 1.15Q51.9 1.15 51.25-0.75L51.25-0.75Q51.1-1.35 51.1-2.1L51.1-2.1Q51.1-4.35 52.05-6.85L52.05-6.85Q51.85-6.75 50.2-4.85 48.55-2.95 46.37-1.2 44.2 0.55 42.45 0.55ZM70.14-13.95L70.79-14Q74.64-14.35 75.47-14.35 76.29-14.35 76.29-14.1L76.29-14.1Q76.29-13.8 75.12-13.48 73.94-13.15 69.39-12.65L69.39-12.65Q69.14-12.2 68.79-11.6L68.79-11.6Q68.04-10.4 67.99-10.15L67.99-10.15Q65.14-4.45 64.99-2.9L64.99-2.9Q64.94-2.45 64.94-1.75 64.94-1.05 65.34-0.6L65.34-0.6Q66.04 0.2 67.34-0.5 68.64-1.2 70.97-3.3 73.29-5.4 74.74-7.4L74.74-7.4Q74.94-7.65 75.24-7.5L75.24-7.5Q75.99-7.15 72.64-3.55L72.64-3.55Q69.44-0.1 67.29 0.7L67.29 0.7Q66.04 1.15 65.19 1.15L65.19 1.15Q63.19 1.15 62.54-0.75L62.54-0.75Q62.44-1.1 62.44-1.6L62.44-1.6Q62.44-3.35 64.04-6.9L64.04-6.9Q63.79-6.35 62.09-4.4L62.09-4.4Q61.64-3.9 61.39-4.4L61.39-4.4Q61.34-4.5 61.34-4.67 61.34-4.85 61.54-5.1L61.54-5.1Q63.99-8.15 65.39-10.25L65.39-10.25Q65.39-10.3 66.49-12.35L66.49-12.35Q65.99-12.25 65.47-12.25 64.94-12.25 64.69-12.58 64.44-12.9 64.64-13.35L64.64-13.35Q64.99-14.15 67.29-14.25L67.29-14.25Q67.34-14.35 67.49-14.35L67.49-14.35 69.99-19Q70.19-19.4 70.44-19.83 70.69-20.25 70.82-20.48 70.94-20.7 71.09-20.95 71.24-21.2 71.34-21.3 71.44-21.4 71.54-21.5L71.54-21.5Q71.74-21.8 72.72-21.8 73.69-21.8 74.04-21.25L74.04-21.25Q74.19-21.05 74.19-20.58 74.19-20.1 73.84-19.53 73.49-18.95 73.09-18.7 72.69-18.45 72.54-18.15L72.54-18.15 70.14-13.95ZM76.39 0.4L76.39 0.4Q74.59 1.3 74.09 1.3 73.59 1.3 73.59 1.15 73.59 1 73.67 0.83 73.74 0.65 74.37-1.05 74.99-2.75 75.94-5.35 76.89-7.95 77.59-9.7L77.59-9.7Q76.44-8.45 74.89-6.25L74.89-6.25Q74.64-5.9 74.22-6.05 73.79-6.2 74.49-7.1L74.49-7.1Q76.14-9.1 78.64-12.85L78.64-12.85Q77.89-13.25 77.89-13.63 77.89-14 77.99-14.2L77.99-14.2Q78.24-14.8 78.89-14.45L78.89-14.45Q79.19-14.35 79.29-14.35L79.29-14.35Q81.49-20.15 84.79-24.7L84.79-24.7Q86.59-27.25 88.54-28.43 90.49-29.6 92.19-29.6L92.19-29.6Q93.39-29.6 94.49-29.03 95.59-28.45 95.59-27.15L95.59-27.15Q95.59-24.65 91.29-19.9L91.29-19.9Q88.99-17.45 86.14-15.4 83.29-13.35 81.09-12.4L81.09-12.4Q79.14-8.1 77.64-3.4L77.64-3.4 80.89-7.65Q80.84-8.1 80.84-8.6L80.84-8.6Q80.84-10.1 81.49-10.45L81.49-10.45Q81.84-10.6 81.94-9.85L81.94-9.85 82.14-9.15Q85.99-13.65 87.69-14.45L87.69-14.45Q88.49-14.85 89.14-14.85 89.79-14.85 90.29-14.5 90.79-14.15 90.79-13.75L90.79-13.75Q90.79-13.05 89.64-12.5L89.64-12.5Q84.14-9.85 82.39-8L82.39-8Q83.59-3.8 84.74-1.4 85.89 1 88.37 4 90.84 7 92.89 7L92.89 7Q94.59 7 94.29 5.5L94.29 5.5Q94.09 4.15 93.47 3.18 92.84 2.2 93.34 2.2L93.34 2.2Q93.79 2.25 94.29 2.65L94.29 2.65Q94.59 3 94.99 3.88 95.39 4.75 95.39 5.35L95.39 5.35Q95.34 6.75 94.04 7.55 92.74 8.35 91.54 8.35L91.54 8.35Q89.19 8.35 86.94 6.03 84.69 3.7 83.19 0.4 81.69-2.9 81.09-6.35L81.09-6.35Q80.19-5.1 79.09-3.35L79.09-3.35Q76.84 0.1 76.39 0.4ZM92.74-24.3Q94.09-26.55 94.09-27.45 94.09-28.35 93.34-28.35 92.59-28.35 91.44-27.45L91.44-27.45Q88.24-25 86.04-21.88 83.84-18.75 81.69-14.1L81.69-14.1Q86.34-16.25 90.14-20.6L90.14-20.6Q91.39-22.05 92.74-24.3ZM93.79 0.55L93.79 0.55Q92.99 0.55 92.06 0.08 91.14-0.4 90.49-1.28 89.84-2.15 89.84-3.15 89.84-4.15 90.29-5.05L90.29-5.05Q91.29-7.15 93.51-9.13 95.74-11.1 98.14-12.5 100.54-13.9 101.94-14.25 103.34-14.6 104.66-14.6 105.99-14.6 106.94-13.93 107.89-13.25 107.89-12.5L107.89-12.5Q107.89-12.25 107.84-12.2 107.79-12.15 107.59-12.25L107.59-12.25Q106.99-13.2 105.11-13.2 103.24-13.2 100.86-11.98 98.49-10.75 96.39-8.9L96.39-8.9Q94.64-7.25 93.31-5.18 91.99-3.1 91.99-2.15L91.99-2.15Q91.99-0.3 93.04-0.3 94.09-0.3 96.24-2L96.24-2Q99.79-5 101.09-6.4L101.09-6.4Q105.69-11.35 106.04-11.35L106.04-11.35Q106.64-11.35 107.49-11 108.34-10.65 108.04-10.15L108.04-10.15Q105.49-6.55 105.04-2.9L105.04-2.9Q104.99-2.45 104.99-1.75 104.99-1.05 105.39-0.6L105.39-0.6Q106.14 0.2 107.44-0.5 108.74-1.2 111.06-3.3 113.39-5.4 114.79-7.4L114.79-7.4Q114.99-7.65 115.24-7.53 115.49-7.4 115.49-7.3L115.49-7.3Q115.49-6.55 113.11-4.03 110.74-1.5 109.49-0.6L109.49-0.6Q107.14 1.15 105.14 1.15L105.14 1.15Q103.24 1.15 102.59-0.75L102.59-0.75Q102.44-1.35 102.44-2.1L102.44-2.1Q102.44-4.35 103.39-6.85L103.39-6.85Q103.19-6.75 101.54-4.85 99.89-2.95 97.71-1.2 95.54 0.55 93.79 0.55ZM155.33-26.4L155.33-26.4Q155.33-25.3 154.43-23.85L154.43-23.85Q153.68-22.5 152.76-22 151.83-21.5 151.83-22.1L151.83-22.1Q151.83-22.15 152.38-22.7L152.38-22.7Q154.03-24.25 154.03-25.25L154.03-25.25Q154.03-27.4 149.78-27.4L149.78-27.4Q147.98-27.4 145.03-26.73 142.08-26.05 139.33-24.55L139.33-24.55Q136.13-22.8 136.13-21.5L136.13-21.5Q136.13-20.45 138.08-19.5L138.08-19.5Q139.13-19 142.26-17.82 145.38-16.65 147.31-15.78 149.23-14.9 150.96-13.3 152.68-11.7 152.68-9.75 152.68-7.8 150.38-5.5L150.38-5.5Q146.88-2.15 141.28 0.08 135.68 2.3 131.68 2.3L131.68 2.3Q123.78 2.3 123.78-2.15 123.78-6.6 128.63-9.7L128.63-9.7Q132.63-12.45 137.03-12.45L137.03-12.45Q138.08-12.45 137.98-12.1L137.98-12.1Q137.88-11.75 136.48-11.73 135.08-11.7 132.88-10.78 130.68-9.85 128.78-8.1L128.78-8.1Q126.28-5.85 126.28-3.6L126.28-3.6Q126.28-2.2 127.63-1.1 128.98 0 132.78 0 136.58 0 140.28-1.2L140.28-1.2Q148.28-3.85 150.28-7L150.28-7Q151.08-8.15 151.08-8.95L151.08-8.95Q151.08-11.25 148.28-12.55L148.28-12.55Q145.03-14.05 139.18-16L139.18-16Q136.93-16.75 135.36-17.98 133.78-19.2 133.78-20.93 133.78-22.65 135.66-24.33 137.53-26 140.18-27L140.18-27Q145.88-29.15 149.83-29.15L149.83-29.15Q155.33-29.15 155.33-26.4ZM166.23-14.55L166.23-14.55Q168.93-14.55 168.93-11.95L168.93-11.95Q168.93-10.6 168.18-9.75L168.18-9.75Q166.93-7.9 164.13-6.53 161.33-5.15 159.38-5L159.38-5Q158.68-4.95 158.63-5.4L158.63-5.4Q158.58-5.6 158.76-5.65 158.93-5.7 159.03-5.7L159.03-5.7Q160.18-5.8 161.98-6.8L161.98-6.8Q165.33-8.6 166.88-10.5L166.88-10.5Q167.53-11.4 167.53-12.23 167.53-13.05 166.73-13.05L166.73-13.05Q166.08-13.05 164.98-12.5L164.98-12.5Q162.63-11.4 160.03-8.68 157.43-5.95 156.63-3.35L156.63-3.35Q156.38-2.55 156.38-1.78 156.38-1 157.03-0.3 157.68 0.4 159.03 0.4L159.03 0.4Q160.53 0.4 162.48-0.4L162.48-0.4Q168.13-2.7 171.18-7.35L171.18-7.35Q171.48-7.75 171.73-7.5L171.73-7.5Q171.93-7.4 171.93-7.25 171.93-7.1 171.78-6.9L171.78-6.9Q170.28-4.4 167.98-2.45L167.98-2.45Q163.53 1.35 159.33 1.35L159.33 1.35Q155.73 1.35 154.28-0.8L154.28-0.8Q153.73-1.65 153.73-2.85 153.73-4.05 154.38-5.7L154.38-5.7Q155.63-8.55 159.73-11.55 163.83-14.55 166.23-14.55ZM173.23-11.15L173.23-11.15Q173.23-13.55 171.83-13.55L171.83-13.55Q171.53-13.55 171.2-13.48 170.88-13.4 170.88-13.6 170.88-13.8 171.18-14.1L171.18-14.1Q171.48-14.35 173.23-14.5L173.23-14.5Q175.33-14.5 175.85-13.9 176.38-13.3 176.38-12.7 176.38-12.1 175.45-9.73 174.53-7.35 174.48-7.25L174.48-7.25Q172.98-2.75 173.13-1.6L173.13-1.6Q177.63-7.65 179.03-9.15L179.03-9.15Q181.98-12.4 183.23-13.6L183.23-13.6Q186.13-16.3 188.33-17.25L188.33-17.25Q188.98-17.5 189.48-17.5L189.48-17.5Q191.13-17.5 191.73-16.5L191.73-16.5Q191.93-16.25 191.93-16.03 191.93-15.8 191.78-15.5 191.63-15.2 191.23-15.53 190.83-15.85 189.43-15.85L189.43-15.85Q187.13-15.85 181.73-10.45L181.73-10.45Q178.48-7.1 175.75-3.45 173.03 0.2 172.83 1.75L172.83 1.75Q172.83 2.15 172.08 2.15 171.33 2.15 170.95 1.53 170.58 0.9 170.58 0.48 170.58 0.05 170.63-0.28 170.68-0.6 171.63-3.95 172.58-7.3 172.83-8.4L172.83-8.4Q172.23-7.4 171.18-5.95L171.18-5.95Q170.83-5.55 170.6-5.73 170.38-5.9 170.38-6.05 170.38-6.2 170.48-6.4L170.48-6.4Q172.58-9.25 173.23-11.15ZM197.93-14.55L197.93-14.55Q200.63-14.55 200.63-11.95L200.63-11.95Q200.63-10.6 199.88-9.75L199.88-9.75Q198.63-7.9 195.83-6.53 193.03-5.15 191.08-5L191.08-5Q190.38-4.95 190.33-5.4L190.33-5.4Q190.28-5.6 190.45-5.65 190.63-5.7 190.73-5.7L190.73-5.7Q191.88-5.8 193.68-6.8L193.68-6.8Q197.03-8.6 198.58-10.5L198.58-10.5Q199.23-11.4 199.23-12.23 199.23-13.05 198.43-13.05L198.43-13.05Q197.78-13.05 196.68-12.5L196.68-12.5Q194.33-11.4 191.73-8.68 189.13-5.95 188.33-3.35L188.33-3.35Q188.08-2.55 188.08-1.78 188.08-1 188.73-0.3 189.38 0.4 190.73 0.4L190.73 0.4Q192.23 0.4 194.18-0.4L194.18-0.4Q199.83-2.7 202.88-7.35L202.88-7.35Q203.18-7.75 203.43-7.5L203.43-7.5Q203.63-7.4 203.63-7.25 203.63-7.1 203.48-6.9L203.48-6.9Q201.98-4.4 199.68-2.45L199.68-2.45Q195.23 1.35 191.03 1.35L191.03 1.35Q187.43 1.35 185.98-0.8L185.98-0.8Q185.43-1.65 185.43-2.85 185.43-4.05 186.08-5.7L186.08-5.7Q187.33-8.55 191.43-11.55 195.53-14.55 197.93-14.55ZM208.92 1.25L208.92 1.25Q206.37 1.25 206.37-1.83 206.37-4.9 210.77-9.4L210.77-9.4Q211.12-9.75 211.27-9.95L211.27-9.95 211.62-10.45Q212.32-11.4 212.27-11.65L212.27-11.65 212.12-12.1Q211.92-12.7 210.47-12.98 209.02-13.25 208.12-13.25L208.12-13.25Q203.62-6.9 202.92-6 202.22-5.1 201.97-5.25 201.72-5.4 201.72-5.6 201.72-5.8 202.02-6.2L202.02-6.2Q204.72-9.5 206.67-13.25L206.67-13.25Q206.07-13.35 205.77-13.68 205.47-14 205.72-14.78 205.97-15.55 207.25-16.85 208.52-18.15 209.47-18.6 210.42-19.05 210.67-19.15 210.92-19.25 211.22-19.25L211.22-19.25Q211.82-19.25 210.82-17.45L210.82-17.45 208.87-14.35Q211.12-14.2 212.72-14.2L212.72-14.2 214.47-14.25Q215.32-14.25 215.72-14.03 216.12-13.8 215.92-13.25L215.92-13.25Q215.57-12.3 214.17-10.7L214.17-10.7Q211.17-7.2 209.67-3.25L209.67-3.25Q209.32-2.3 209.32-1.6L209.32-1.6Q209.32-0.15 210.37-0.15L210.37-0.15Q210.72-0.15 211.7-0.7 212.67-1.25 214.97-3.33 217.27-5.4 218.67-7.4L218.67-7.4Q218.87-7.65 219.15-7.53 219.42-7.4 219.42-7.28 219.42-7.15 219.32-7L219.32-7Q218.57-5.65 216.62-3.55 214.67-1.45 212.82-0.15L212.82-0.15Q211.02 1.25 208.92 1.25Z" opacity="1" transform="matrix(1,0,0,1,0,0)" fill="#39312e" class="undefined-text-0" data-fill-palette-color="primary" id="text-0"></path></svg></g></svg></g></svg></g></svg></g></svg></g></svg></g></svg></g></svg></g><defs></defs></svg><rect width="395.52" height="247.2" fill="none" stroke="none" visibility="hidden"></rect></g></svg></g></svg>